<svg width="512" height="512" xmlns="http://www.w3.org/2000/svg">
 <defs>
  <linearGradient y2="0.07562" x2="0.05599" y1="0.80837" x1="0.82434" id="gradient_0">
   <stop stop-color="#5D49D2" offset="0"/>
   <stop stop-color="#65CBE0" offset="1"/>
  </linearGradient>
  <linearGradient y2="-0.08443" x2="0.71163" y1="1.0742" x1="0.2849" id="gradient_1">
   <stop stop-color="#3FFFF6" offset="0"/>
   <stop stop-color="#646CFA" offset="1"/>
  </linearGradient>
  <linearGradient y2="-0.00533" x2="0.21635" y1="1.02437" x1="0.70862" id="gradient_2">
   <stop stop-color="#4B3FB5" offset="0"/>
   <stop stop-color="#467ED1" offset="1"/>
  </linearGradient>
  <linearGradient y2="-0.06167" x2="0.64155" y1="1.05801" x1="0.35553" id="gradient_3">
   <stop stop-color="#FF9FC0" offset="0"/>
   <stop stop-color="#AF5AD9" offset="1"/>
  </linearGradient>
  <linearGradient y2="0.70765" x2="-0.13331" y1="0.21461" x1="1.01765" id="gradient_4">
   <stop stop-color="#00E9C6" offset="0"/>
   <stop stop-color="#C8B6F0" offset="1"/>
  </linearGradient>
 </defs>




 <g>
  <title>Layer 1</title>
  <g stroke="null" id="svg_13">
   <path stroke="null" id="svg_2" d="m618.03928,1020.02531c-4.08061,0.42773 -8.64179,0.04916 -12.77156,0.04916l-24.90891,-0.00123l-81.2889,0.11185l-254.64589,-0.02581c-17.63757,-0.0086 -34.95557,0.11185 -52.48128,-2.34758c-45.99164,-6.454 -90.82056,-30.51852 -123.40151,-63.33545c-30.11538,-30.33416 -53.00365,-69.91728 -62.23172,-111.81356c-7.66687,-34.8007 -5.77713,-70.44087 -5.75993,-105.85244l0.04486,-109.92321l-0.07203,-391.83297c0.16581,-63.01589 22.7044,-121.88234 67.66852,-166.54779c29.68396,-29.48608 68.10559,-50.76178 109.04563,-59.67274c28.43643,-6.1895 57.79468,-4.6793 86.70677,-4.734l98.26767,-0.11369l406.88328,-0.08936c16.49328,0.05973 33.62445,-0.69592 50.02432,0.91715c50.67205,4.98473 98.13615,28.49493 133.78616,64.50507c28.65398,28.94404 50.73965,67.62993 60.07343,107.38635c8.12188,34.59421 6.57322,68.98808 6.57076,104.2288l-0.04916,101.74602l-0.13889,309.20313l-0.1561,76.25697c-0.1057,21.28553 0.56661,42.88694 -2.31808,64.01638c-6.26226,45.86628 -31.90863,90.62267 -64.14297,123.23435c-20.55545,20.79635 -45.23083,36.30512 -72.06206,47.57964c-24.82411,10.43136 -50.5221,17.05006 -77.56965,17.11274l-185.07276,-0.05777z" transform="translate(1 0) scale(0.5 0.5)" fill="url(#gradient_0)"/>
   <path stroke="null" id="svg_3" d="m265.83338,686.8351c1.24876,-2.44959 4.07815,-4.64476 6.02258,-6.5978l13.20175,-13.26075l52.56118,-51.99333l22.99275,-22.32535c2.1878,-1.99606 4.69516,-4.4014 7.38811,-5.67598l0.77802,-0.338c3.98965,-1.77359 8.51765,-1.60152 12.81458,-1.78342c4.71851,4.57839 7.99529,7.44957 8.06043,14.41118c0.03564,3.8225 -0.74852,7.13983 -2.9523,10.32074c-2.74335,3.96261 -6.58059,7.3242 -9.97905,10.7202l-17.32537,17.3389l-52.9213,54.01643c-1.22541,1.20697 -3.71434,4.28464 -5.16713,4.85125l-33.14387,33.20656c-5.68827,5.71408 -11.74527,13.09482 -18.38363,17.61913c-2.65608,1.81046 -4.61895,2.48524 -7.84411,2.50244c-2.27629,0.01229 -4.35961,-0.34783 -6.55724,-0.94272l-0.45354,-0.37733l-3.00883,-2.4078c-3.34561,-3.21532 -5.36133,-8.03093 -5.3601,-12.6462c0.00123,-3.01129 0.4437,-5.06634 1.98131,-7.67818c3.51153,-5.96482 9.54026,-11.12211 14.40135,-16.0299l22.89442,-22.93006z" transform="translate(-0.975376 0) scale(0.5 0.5)" fill="url(#gradient_1)"/>
   <path stroke="null" id="svg_4" d="m365.70502,344.18451l-0.16593,0.06145c-2.98302,-2.70033 -5.39083,-6.03979 -7.86254,-9.20349c-7.64376,-9.78731 -13.78188,-20.45097 -18.95147,-31.72795c-11.42201,-24.91998 -13.85194,-51.45867 -9.2674,-78.33169c1.18116,-6.92228 2.33652,-13.72903 4.77996,-20.33298l21.21178,24.99495l-5.90213,-26.70586c-5.77308,-38.13156 3.60618,-79.02736 26.46249,-110.26244l3.57791,4.98645l97.35691,96.71655l123.47894,120.42709l46.15634,42.16792c6.74406,6.27947 12.88587,13.48198 19.8229,19.49965c6.14058,5.32691 11.76247,11.34089 17.5122,17.09922c6.75021,6.7625 13.86423,13.66512 19.97531,21.00284l2.93386,3.23499c16.23516,2.08209 31.76483,5.38837 45.59956,14.70617c3.59757,2.42255 6.75144,5.4191 10.29493,7.90433c4.4604,3.12806 9.66194,5.09461 14.14201,8.31239c7.07715,5.08355 13.52869,11.78091 19.86592,17.78383l52.28094,52.76152l113.77644,112.07045l31.92953,31.29531c1.02753,1.03982 1.27212,2.19394 2.62413,1.12463c1.09636,-0.86651 1.31391,-2.3906 1.53637,-3.6873l0.76819,0.46091l0.46091,-1.07546l0.92182,-0.30727l0.46091,-1.07546c1.3938,-2.68927 2.12388,-4.03267 2.72737,-7.04765c0.19666,-0.98697 0.64528,-1.75515 1.11356,-2.6315l-0.46091,-1.07546l0.46091,-1.07546l0.46091,-2.61183l-1.38274,-0.45477c-0.90462,0.90462 -1.22049,0.8026 -1.2291,2.14478l-0.6084,0.61455l-0.62438,-0.15364c-0.26671,-1.40978 -0.31342,-2.15215 0.00369,-3.53366l1.04719,-5.36747c0.18191,-0.91199 0.54695,-1.64085 0.95009,-2.46803l-0.30727,-0.61455l0.34292,-0.59488c0.83333,-1.51425 1.44296,-3.20918 1.78342,-4.89919c0.36136,-1.78957 1.17502,-3.39846 1.53637,-5.22367c0.28515,-1.43313 0.01598,-0.18559 0.49778,-1.62978c0.45354,-1.36184 0.34169,-2.68681 0.29498,-4.09781l0.6084,-0.91568l0.01229,0.30727l0.61455,0.92182l-0.15978,1.69001l1.37659,-0.15364l0.61455,-1.84365l-0.76204,-0.76819l0.45722,-0.61455l-0.45722,-0.61455l0.76204,-0.46091l0.00615,-0.92182l0.6084,-0.61455l-0.76204,-1.07546l0.76204,-0.76819l-0.76204,-1.07546l0.76204,-0.46091l0.00615,-0.92182l0.6084,-0.61455l-0.76204,-1.07546l0.76204,-0.76819l-0.76204,-1.07546l0.76204,-0.76819l-0.12291,-0.80629c-0.10324,-1.25983 0.21878,-1.77605 0.73746,-2.88101c0.59857,-1.27458 0.68092,-1.97639 0.62069,-3.38617l0.6084,-0.91568l-0.08481,-0.86406c-0.11308,-1.38028 -0.07252,-1.66051 0.69936,-2.82324c0.00246,-1.88298 -0.4056,-4.61035 0.61455,-6.14549c-0.04793,-2.85028 -0.08481,-4.95573 0.61455,-7.68187c0.58505,-2.28367 -0.4265,-5.5543 0.31342,-7.68187c0.22493,-0.64774 0.89724,-0.76204 0.92797,-1.53637c0.85545,1.29547 0.6379,1.78096 0.45477,3.22638l0.46091,1.07546c0.17453,0.84562 -0.14872,1.98622 -0.46091,2.76178l0.76819,0.30482l0.6084,-0.91568l0.92428,-0.00369c0.14135,-0.70919 0.09095,-1.32251 0.61824,-1.83996l-0.02212,74.52025l0.00123,22.28602c0.00123,4.48498 -0.24828,9.07321 0.35152,13.50534l0.28884,6.72071l0.44862,0.19051l-0.1561,76.25697c-0.1057,21.28553 0.56661,42.88694 -2.31808,64.01638c-6.26226,45.86628 -31.90863,90.62267 -64.14297,123.23435c-20.55545,20.79635 -45.23083,36.30512 -72.06206,47.57964c-24.82411,10.43136 -50.5221,17.05006 -77.56965,17.11274l-185.07276,-0.05777c-0.89478,-0.84562 -0.41298,-0.72025 -1.31145,-0.72025l-93.04646,0.05654c-2.22713,0.01352 -18.09479,0.64405 -18.87158,0.21018c-1.02384,-0.57276 -2.65731,-2.7667 -3.53243,-3.65903l-9.8967,-9.88441l-44.03,-43.21019l-115.56232,-115.10632l-41.87662,-41.73896l-13.43405,-11.50805c-5.55184,-2.9314 -7.58354,-6.28561 -9.84262,-11.96528l-33.65395,-33.59495c2.19763,0.59488 4.28095,0.95501 6.55724,0.94272c3.22515,-0.01721 5.18803,-0.69198 7.84411,-2.50244c6.63836,-4.52431 12.69536,-11.90505 18.38363,-17.61913l33.14387,-33.20656c1.45279,-0.56661 3.94172,-3.64428 5.16713,-4.85125l52.9213,-54.01643l17.32537,-17.3389c3.39846,-3.396 7.2357,-6.75758 9.97905,-10.7202c2.20377,-3.18091 2.98794,-6.49824 2.9523,-10.32074c-0.06514,-6.96161 -3.34192,-9.83279 -8.06043,-14.41118l-22.8219,-21.9517l-58.61449,-58.04787c-8.83845,-8.87778 -19.06455,-17.37331 -26.81156,-27.20118l-0.11431,0.01598c-8.12188,-7.58723 -15.52597,-16.39863 -22.3573,-25.14859c-7.62779,-9.76888 -14.93232,-19.84626 -20.62059,-30.89708c-5.56659,-10.81238 -9.69882,-22.15082 -13.4955,-33.68099c1.45402,-2.08947 2.61306,-3.58774 4.71236,-5.05037c2.80357,-0.40806 5.64525,1.16027 8.14647,2.3021l17.03531,7.96948c-9.25757,-13.11817 -17.43354,-25.65989 -22.92884,-40.87982c-5.54815,-15.36373 -9.11377,-32.64978 -9.15679,-48.99064c-0.05654,-21.85583 6.80306,-48.15977 16.01147,-67.91385c3.94172,4.57348 8.66392,9.09041 11.99232,14.11128c0.69936,1.16027 1.32866,1.87315 2.25908,2.83184l58.68332,60.84038c2.1288,2.23942 4.4899,4.4309 6.35075,6.89279c0.83825,1.10865 1.71705,1.9727 2.71385,2.93755c-1.58677,0.00983 -0.32202,0.1942 -1.69001,-0.60595l-1.07546,-0.46706l-2.38322,-1.71582c-1.01892,-0.73992 -2.11159,-0.97099 -3.11822,-1.70107l-15.24205,-11.94684l-1.13446,-1.11971c-2.56636,-2.65362 -4.74801,-4.64599 -6.85837,-7.63762c-1.01278,-1.43559 -2.21852,-1.34095 -2.76301,-3.22638c-1.31391,-1.14675 -1.40732,-1.33972 -2.30087,-2.76547l-0.68338,-0.74975c-1.00417,-1.11233 -0.47689,-0.3589 -0.96238,-1.44788c-0.51622,-1.16027 -1.56341,-1.90142 -2.5049,-2.71877l-0.30727,-1.073c-1.18977,-1.05948 -1.86577,-1.76007 -2.76916,-3.0752l-1.53269,-1.84119c-1.61626,-1.99483 -2.85397,-3.6197 -4.91394,-5.21998l-0.91568,0.6084l2.75933,3.6873l0.00246,0.91937c0.81612,0.68215 1.58431,1.06071 1.95304,2.03907c0.55187,1.47 2.14478,1.9641 2.9609,3.18705c0.30605,0.45845 0.27532,1.10127 0.61701,1.53392l1.84119,1.53883l0.46091,1.07546l1.38274,1.38274l0.61455,0.92182l0.66248,0.79646l3.02481,4.11994l0.62438,0.79646l2.56267,2.64871c0.90585,0.92182 0.17699,0.18928 0.96116,1.62487c0.63421,1.1615 1.88544,1.92108 2.92525,2.61183c2.68927,1.78465 4.44319,4.58331 7.21481,6.29913c1.17133,0.72517 2.48647,2.20132 3.6873,3.07275l1.38274,1.68387l0.92182,0.00615l0.70059,0.73992c1.2082,1.20697 0.39085,0.50147 1.91125,1.25737c0.89847,0.44616 1.61626,1.29301 2.30702,1.99483c0.77064,0.78048 0.55064,0.73623 1.54006,0.92428c1.17379,0.22247 1.81292,0.95501 2.75933,1.53637l0.71165,0.34538c1.98254,0.98942 3.23376,2.45082 5.43385,3.03464c2.38445,0.63299 3.04448,1.30162 4.61527,3.07275l5.83207,4.91025l1.07546,0.46706c1.44419,0.81121 2.44591,1.97147 3.99457,2.76547c1.48229,0.75958 2.80112,2.01449 4.14821,2.91296l1.07546,0.46706c3.15387,1.61626 7.74209,4.1396 10.48913,6.33477c0.95378,0.76204 1.54744,0.68707 2.57005,1.19345c3.80898,1.88421 7.66343,4.04373 11.61867,5.72023c0.66494,0.28146 1.2586,0.70673 1.90142,1.03367c2.05751,1.0435 4.58208,2.01695 6.7625,2.76916l2.45574,0.91814c1.33111,0.44125 2.73229,0.94764 3.99457,1.54252c1.3053,0.61578 2.64871,0.79891 4.0044,1.25122c0.9587,0.31957 1.33111,0.31957 2.29473,0.13151l0.92182,0.51868c1.52162,0.81858 3.27309,1.10865 4.91639,1.63224c1.11725,0.35644 2.63887,0.45722 3.84093,0.76819c1.09267,0.28392 1.91739,0.2618 3.07275,0.61455c1.32497,0.40437 2.2259,-0.01229 3.6873,0.61455l1.22295,-0.30727c-1.58308,-1.05211 -3.07643,-1.45279 -4.91025,-1.8375l-1.07546,-0.2409c-1.52285,-0.3294 -0.57891,-0.1561 -1.92354,-0.29253c-1.01278,-0.10324 -0.57153,-0.00615 -1.61012,-0.69567c-1.24754,-0.00369 -1.53392,0.2999 -2.4582,-0.61455c-1.38888,-0.00615 -1.20452,0.08112 -2.4582,-0.61455l-2.46066,-0.92551c-1.32128,-0.61209 -1.05211,-0.7436 -1.84365,-1.69247l-6.6273,-7.10296c-1.07669,-1.34709 -2.44591,-2.31562 -3.337,-3.80037c-0.82841,-1.38151 -2.21238,-2.36724 -3.42919,-3.4046z" transform="translate(-0.975376 0) scale(0.5 0.5)" fill="url(#gradient_2)"/>
   <path stroke="null" id="svg_5" d="m368.94124,761.02349c3.53243,-4.3043 7.77282,-8.20178 11.69119,-12.16439l21.09625,-21.14541c5.4867,-5.4572 10.82836,-11.95053 16.82636,-16.72803c2.56021,-2.03907 5.88247,-4.10765 9.18014,-4.55258c4.24531,-0.57276 8.65777,0.72517 11.8903,3.53489c2.83799,2.46557 4.49727,5.87878 4.59683,9.62138c0.16101,6.04717 -2.01818,9.74429 -6.15287,13.9515l-26.27321,25.97577c-3.25711,3.2399 -8.07518,9.43948 -11.89153,11.48347c-5.65508,6.53635 -12.45937,12.60687 -18.66386,18.64666c-4.84634,4.71728 -9.87212,10.38465 -15.50016,14.12357c-2.57373,1.70968 -5.31462,2.94369 -8.4562,3.03096c-4.05603,0.11308 -8.24848,-1.47123 -11.06189,-4.41861c-2.37831,-2.49138 -3.48695,-5.78537 -3.44393,-9.18628c0.09956,-8.1268 7.55527,-13.80892 12.85883,-19.12355l13.30376,-13.04934z" transform="translate(-0.975376 0) scale(0.5 0.5)" fill="url(#gradient_3)"/>
   <path stroke="null" id="svg_6" d="m314.30903,727.32652c4.53292,-5.74112 10.48667,-10.89596 15.66363,-16.08153l30.54556,-30.56277l40.66473,-40.44349c6.76496,-6.72686 13.37751,-14.26615 20.62059,-20.44729c2.09193,-1.78588 4.94589,-3.35175 7.70399,-3.71557c4.131,-0.54326 8.41195,0.01967 11.70102,2.74212c3.87412,3.20549 5.97342,7.70768 6.39131,12.70888c0.34906,4.17771 -2.18902,8.7856 -4.89304,11.79812l-22.59452,22.93867l-42.67799,43.17086l-18.63437,18.73638c-3.71679,3.84585 -7.32912,8.3505 -11.53263,11.61252l-33.94033,33.91698c-6.29421,6.28192 -12.70519,14.56236 -20.31454,19.24154c-2.64502,1.6261 -5.77922,2.10053 -8.84091,2.18902c-1.75761,0.05039 -3.58036,-0.29744 -5.29619,-0.66617c-5.55184,-2.9314 -7.58354,-6.28561 -9.84262,-11.96528c0.08604,-4.2367 1.58677,-9.1236 3.78931,-12.71994c3.34561,-5.46089 9.74552,-10.46209 14.30425,-15.04171l27.18275,-27.41136z" transform="translate(-0.975376 0) scale(0.5 0.5)" fill="#52B2F7"/>
   <path stroke="null" id="svg_7" d="m567.1248,672.16089l45.37095,-23.76585c23.52741,-13.3812 45.78024,-29.37915 66.86297,-46.31121l29.18249,-25.39441c6.63099,-6.19957 13.08376,-13.72043 20.65255,-18.70197c-3.852,15.54318 -10.59852,29.84252 -18.52989,43.66373c-17.42493,30.36611 -40.06001,55.39056 -70.13114,73.62301c-22.22579,13.47584 -47.00934,20.32438 -72.61269,23.57165c-2.27629,11.00904 -6.10739,21.40844 -10.13761,31.87053c-16.31751,42.36212 -42.35843,78.71517 -80.56127,103.8109c-23.89368,15.69682 -49.35692,24.02028 -77.10013,29.81425c-2.40535,-0.20157 -6.29299,1.04596 -8.76839,1.44911c-6.87681,1.12217 -13.81999,2.26031 -20.77177,2.78391c10.07123,-4.52185 19.31037,-8.57296 28.53107,-14.7627l-0.15487,1.21927c-1.80063,1.57325 -3.84462,2.84168 -5.82962,4.1691l0.41544,0.30973c1.78588,-0.51499 2.95107,-1.45894 4.60912,-2.08455c0.92797,-0.35029 1.74778,-0.81243 2.61183,-1.29793l1.75884,-0.92428l0.69936,-0.30482l2.61183,-1.09759c6.336,-2.06366 12.39792,-6.39008 17.87355,-10.14006c16.31751,-11.17742 32.04629,-24.20218 45.47296,-38.74365c3.44762,-3.73523 7.56142,-7.78388 10.05649,-12.19512c10.77182,-13.22879 20.39198,-28.54336 28.1439,-43.71781c9.90162,-19.38043 16.96894,-40.34639 32.44943,-56.26814c5.39574,-5.54938 11.88784,-10.25929 18.29022,-14.56728c2.85643,-1.92108 5.89967,-3.51891 8.59509,-5.67352l0.40929,-0.33431z" transform="translate(-0.975376 0) scale(0.5 0.5)" fill="#FEFEFE"/>
   <path stroke="null" id="svg_8" d="m433.54758,375.36797l-0.03441,-0.06883c-7.70276,-2.73229 -16.8915,-3.96016 -24.94087,-5.65508c-11.59409,-10.55673 -22.78872,-21.54118 -32.21345,-34.1247c-23.43768,-31.29039 -34.22425,-68.59231 -36.70826,-107.14053c13.6307,23.96374 34.04603,43.20282 55.60688,60.02549c36.14656,28.20413 76.01238,49.5843 117.81525,68.14369l0.83947,-0.36013c-51.08134,-25.77543 -103.02797,-59.56827 -130.62738,-111.39813c-21.35559,-40.1018 -22.09919,-86.94275 -9.10639,-129.76209c0.83333,-2.74458 3.16124,-12.85637 5.41172,-14.05966c2.4668,49.88297 24.39761,94.53244 61.12676,128.05856c23.0751,21.06183 49.66665,36.23014 76.24959,52.27357l70.56133,45.5676c13.6811,9.80821 26.85949,18.88141 37.99881,31.6751c5.21015,6.77356 10.00486,13.45617 13.80401,21.13189c4.68778,9.46898 7.85271,19.51194 12.32909,29.04114c2.39428,5.0983 5.48301,9.88318 8.21161,14.81064c-4.02038,3.19689 -10.88736,4.92869 -15.54564,7.55281c-16.98614,9.56976 -29.99247,23.33935 -40.60942,39.50569c-22.81699,-30.86144 -51.94908,-55.45079 -87.23282,-70.98659c-14.40995,-6.34461 -29.64217,-10.90579 -44.80679,-15.04048c-12.53926,-3.41812 -25.32558,-6.92843 -38.1291,-9.18997z" transform="translate(-0.975376 0) scale(0.5 0.5)" fill="#FEFEFE"/>
   <path stroke="null" id="svg_9" d="m632.81889,470.3183c16.47115,-17.30448 38.10206,-29.05958 62.36324,-29.66307c18.06898,-0.44985 37.85132,5.01718 51.16492,17.78752c4.37436,4.19614 7.77774,8.49799 10.73741,13.76959c2.50613,4.46532 4.72711,9.96184 8.31731,13.64545c7.53437,7.73103 17.29465,14.33129 25.98683,20.80618c1.91248,1.42453 8.15507,5.19663 9.03756,6.84854c0.11431,0.21386 0.05285,0.48181 0.07866,0.72271l-0.90216,0.6588c-15.66486,-2.41395 -35.50129,-4.67918 -49.11478,5.32937c-10.90211,8.01495 -17.02547,25.29485 -21.29413,37.76406c-7.56879,4.98154 -14.02156,12.50239 -20.65255,18.70197l-29.18249,25.39441c-21.08273,16.93206 -43.33556,32.93001 -66.86297,46.31121l-45.37095,23.76585l-0.40929,0.33431c-2.69541,2.15461 -5.73866,3.75244 -8.59509,5.67352c-6.40238,4.30799 -12.89447,9.0179 -18.29022,14.56728c-15.4805,15.92174 -22.54782,36.88771 -32.44943,56.26814c-7.75193,15.17445 -17.37208,30.48902 -28.1439,43.71781c-2.49507,4.41124 -6.60886,8.45989 -10.05649,12.19512c-13.42667,14.54147 -29.15545,27.56623 -45.47296,38.74365c-5.47563,3.74998 -11.53755,8.07641 -17.87355,10.14006l-2.61183,1.09759l-0.69936,0.30482l-1.75884,0.92428c-0.86406,0.48549 -1.68387,0.94764 -2.61183,1.29793c-1.65805,0.62561 -2.82324,1.56956 -4.60912,2.08455l-0.41544,-0.30973c1.98499,-1.32743 4.02899,-2.59586 5.82962,-4.1691l0.15487,-1.21927c5.4953,-5.40681 10.75707,-10.40063 15.49893,-16.55842c28.76091,-37.34616 38.78544,-85.71488 52.06708,-129.94154c3.5398,-14.51443 8.66269,-29.05835 13.74378,-43.10941c9.99872,-27.65349 21.33838,-53.44859 36.46613,-78.67215l34.16403,-5.70793c23.22505,-4.48498 47.30309,-8.76102 71.0419,-6.06806c9.38171,1.06563 18.30865,3.4636 27.24297,6.4245c-2.95967,-7.46555 -7.24431,-14.71477 -10.97954,-21.82879l-31.33956,-54.59288c5.74604,-3.57299 9.08918,-11.02379 12.9928,-16.43059l12.80844,-17.00827z" transform="translate(-0.975376 0) scale(0.5 0.5)" fill="url(#gradient_4)"/>
   <path stroke="null" id="svg_10" d="m721.27343,469.64721c1.95427,0.23353 4.16664,0.45231 5.96973,1.28072c4.10888,1.89035 7.29224,5.88247 8.74504,10.09827c1.33111,3.86306 0.73131,6.92474 -1.19345,10.58623c-2.19025,4.16787 -5.37362,6.24997 -9.76273,7.57371c-2.71139,-0.04793 -5.5334,-0.24336 -8.05428,-1.33111c-3.68975,-1.59045 -6.78094,-4.99506 -8.00389,-8.82616c-1.24385,-3.89993 -0.47197,-8.62704 1.58062,-12.11645c2.50613,-4.26129 6.12706,-6.03487 10.71897,-7.2652z" transform="translate(-0.975376 0) scale(0.5 0.5)" fill="#FEE4F7"/>
   <path stroke="null" id="svg_11" d="m273.3444,477.65971l-0.11431,0.01598c-8.12188,-7.58723 -15.52597,-16.39863 -22.3573,-25.14859c-7.62779,-9.76888 -14.93232,-19.84626 -20.62059,-30.89708c-5.56659,-10.81238 -9.69882,-22.15082 -13.4955,-33.68099c1.45402,-2.08947 2.61306,-3.58774 4.71236,-5.05037c2.80357,-0.40806 5.64525,1.16027 8.14647,2.3021l17.03531,7.96948c-9.25757,-13.11817 -17.43354,-25.65989 -22.92884,-40.87982c-5.54815,-15.36373 -9.11377,-32.64978 -9.15679,-48.99064c-0.05654,-21.85583 6.80306,-48.15977 16.01147,-67.91385c3.94172,4.57348 8.66392,9.09041 11.99232,14.11128l-6.35075,-6.07912l-0.62069,0.61455l0.13643,0.51991c0.3884,1.54498 0.54572,2.95475 0.6379,4.55012c0.98082,0.98697 1.33111,1.25491 1.2291,2.76547c-0.07129,1.05334 -0.64159,1.6556 -1.38888,2.30456c0.31342,1.55235 1.87683,2.61306 1.76867,3.7254c-0.09956,1.00786 -0.34169,2.33283 0.23476,3.18828l0.46091,-0.76204c0.735,0.735 1.83382,1.40363 1.84365,2.4582c1.13692,1.71213 -0.02335,0.21878 1.53392,1.53269c0.79891,0.67478 0.99065,1.56464 1.38274,2.45574c0.51622,1.17502 0.29744,0.81121 1.37905,1.53637l0.00615,0.92182l0.59243,0.56661c0.90462,0.90953 0.85054,1.31145 1.24508,2.50613l0.92428,2.46066c0.40806,1.02138 0.96607,1.89281 1.57202,2.80112c0.58013,0.8702 0.71042,1.13815 0.88741,2.11528c0.15732,0.87512 0.37856,1.60643 0.61455,2.4582l0.30359,1.53392c-1.18608,0.78785 -0.56907,0.49041 -1.8375,0.92182c0.91937,2.32177 -0.47074,2.31316 -0.30727,3.99457c0.13274,1.3557 1.94812,3.25097 2.61183,4.45548l1.07546,1.38274l1.7994,2.48647c2.67329,3.99703 6.42573,7.38197 8.97488,11.38883c1.73303,2.72368 4.58577,4.27481 6.27947,7.17302l0.95993,0.91445l15.90577,15.29122c1.62733,1.75515 -0.11308,0.06883 1.87806,1.30899l1.38274,1.38274c2.60569,2.53932 6.1713,4.54029 8.60369,7.07346c0.45354,0.47197 0.6969,1.15044 1.2291,1.53023l1.07546,0.46091c2.07472,1.20697 3.82373,3.09733 5.99923,4.36945c0.91691,0.53466 1.63593,1.10742 2.45082,1.77851c1.20206,0.99065 2.31316,1.83504 3.70696,2.5344c0.79277,0.39823 1.16273,0.74483 1.82398,1.30407c0.87266,0.73746 1.15658,1.22787 2.30456,1.23156l0.59611,0.54695c2.50122,2.21852 5.90951,3.83233 8.77576,5.59609l3.07275,1.84365c1.74163,1.04105 4.02776,2.74212 5.99186,3.0752l0.76819,0.61209l3.37756,1.69001l2.43976,1.13323c1.30284,0.54326 2.42132,1.31882 3.7254,1.86208c0.98451,0.41052 1.55112,0.94518 2.44099,1.46017l1.22664,0.46091l5.52726,2.30456l1.82152,1.05825c1.00663,0.54695 1.99606,0.83579 3.0752,1.18608c1.11233,0.36013 0.20034,0.05777 1.55973,0.67478l4.30185,1.69247l1.03736,0.46337c0.95378,0.40929 1.64085,0.61578 2.64994,0.76573l0.61701,0.61209c0.75344,0.52728 1.57816,0.61455 2.45574,0.61701l0.61701,0.61209l1.15289,0.18436c1.74163,0.29498 2.7962,1.15167 4.68532,1.35815c1.37905,1.37045 5.10691,1.9555 7.06732,2.60815l0.92182,0.4646c1.21681,0.50762 2.67944,0.66248 3.95401,1.13937c0.97836,0.36504 1.89773,0.62438 2.91911,0.82718c1.15289,0.22861 0.59857,0.11922 1.86331,0.66248c1.17379,0.50393 1.69984,0.53466 2.94,0.4437c0.60963,0.60595 0.65019,0.87635 1.529,0.99065c1.6728,0.21632 2.74089,0.69813 4.30922,1.15412c1.18362,0.34415 2.17182,0.37119 3.34192,0.85545c1.90633,0.79154 3.84831,0.63176 5.87632,1.45157c1.57325,0.63667 3.85568,1.14552 5.52849,1.38274c2.18902,0.31219 4.38911,1.07423 6.45523,1.84119c1.45771,-0.23845 1.47,-0.55064 2.76547,0.31342c1.88912,0 2.76916,0.8407 4.30185,0.7645c2.88469,-0.14135 9.84508,1.59906 12.43848,2.80603l-0.1647,0.73623c30.84177,7.0919 64.35192,16.28802 91.37242,33.34668c13.19683,8.33206 24.75773,18.0739 36.70457,28.02099c12.44831,12.33646 24.45538,24.73807 34.10011,39.4848l31.33956,54.59288c3.73523,7.11402 8.01987,14.36325 10.97954,21.82879c-8.93432,-2.9609 -17.86126,-5.35887 -27.24297,-6.4245c-23.73881,-2.69296 -47.81685,1.58308 -71.0419,6.06806l-34.16403,5.70793c-8.45989,1.55727 -17.23811,1.9346 -25.83074,1.85963c-45.84415,-0.39823 -93.09562,-17.66952 -128.2417,-47.13225c-4.97048,-4.16664 -9.48495,-8.94292 -14.02525,-13.56925c32.41994,11.65186 66.48195,8.15876 99.86673,4.23302c-2.41518,-1.3053 -17.98294,-0.47074 -21.96645,-0.77064c-17.74204,-1.33357 -34.71466,-4.92377 -51.81511,-9.74921l0.5408,1.40363c1.20206,0.00492 1.45157,0.28146 2.45574,0.91937c1.48229,0.94272 1.91248,0.32325 3.38002,0.61455l1.07546,0.30973l1.07546,0.15364c0.78171,0.58382 0.40314,0.43387 1.3557,0.62315c1.00663,0.19911 0.75221,0.07989 1.87069,0.45231c1.29055,0.43141 2.54178,0.56907 3.84093,0.91937c1.01769,0.27409 1.61012,0.49164 2.7077,0.56784l0.97959,0.04671l0.61455,0.61455l1.2291,0l1.07546,0.30973c0.7436,0.1266 1.56956,-0.04179 2.30456,0.30482c1.5376,0.7264 1.90756,0.32202 3.38002,0.61455c1.4995,0.29744 2.75933,0.51376 4.30185,0.61455c0.99926,0.99926 2.31071,0.61455 3.6873,0.61455l0.61455,0.61455c1.41223,-0.51253 2.84782,-0.17699 4.30185,0l0.61455,0.61455c3.07643,-0.04548 5.92548,0.53957 8.89622,0.48058l0.6293,-0.01721l0.31342,0.4646l-0.61824,1.07546l-5.84068,-0.14749c-2.29964,2.27752 -8.31239,0.14626 -11.36916,0.91568c-2.01081,0.50639 -0.1942,0.53466 -1.92968,0.40683c-2.42747,-0.17945 -5.99186,-0.34292 -8.38368,0.04793l-0.74852,0.15978c-1.93829,-0.83087 -6.06191,-1.0558 -8.20055,-0.84685c-0.98697,0.0971 -1.8756,0.01598 -2.86134,-0.06883l-0.61455,-0.61455l-1.53637,0.15118c-1.46631,0.17453 -2.53563,0.05531 -3.99457,-0.15118l-0.61455,-0.61455c-7.45817,0.16962 -16.03113,-4.12854 -22.92515,-6.76865c-18.7585,-7.18408 -37.20359,-14.81187 -54.12336,-25.8418c-7.10911,-4.63493 -13.43774,-10.2347 -20.41041,-14.95199c-3.09733,-2.09438 -5.03316,-5.40189 -8.60492,-6.733z" transform="translate(-0.975376 0) scale(0.5 0.5)" fill="#FEFEFE"/>
   <path stroke="null" id="svg_12" d="m273.3444,477.65971l-0.11431,0.01598c-8.12188,-7.58723 -15.52597,-16.39863 -22.3573,-25.14859c-7.62779,-9.76888 -14.93232,-19.84626 -20.62059,-30.89708c-5.56659,-10.81238 -9.69882,-22.15082 -13.4955,-33.68099c1.45402,-2.08947 2.61306,-3.58774 4.71236,-5.05037c2.80357,-0.40806 5.64525,1.16027 8.14647,2.3021l17.03531,7.96948c-9.25757,-13.11817 -17.43354,-25.65989 -22.92884,-40.87982c-5.54815,-15.36373 -9.11377,-32.64978 -9.15679,-48.99064c-0.05654,-21.85583 6.80306,-48.15977 16.01147,-67.91385c3.94172,4.57348 8.66392,9.09041 11.99232,14.11128l-6.35075,-6.07912l-0.62069,0.61455l0.13643,0.51991c0.3884,1.54498 0.54572,2.95475 0.6379,4.55012c0.98082,0.98697 1.33111,1.25491 1.2291,2.76547c-0.07129,1.05334 -0.64159,1.6556 -1.38888,2.30456c0.31342,1.55235 1.87683,2.61306 1.76867,3.7254c-0.09956,1.00786 -0.34169,2.33283 0.23476,3.18828l0.46091,-0.76204c0.735,0.735 1.83382,1.40363 1.84365,2.4582c1.13692,1.71213 -0.02335,0.21878 1.53392,1.53269c0.79891,0.67478 0.99065,1.56464 1.38274,2.45574c0.51622,1.17502 0.29744,0.81121 1.37905,1.53637l0.00615,0.92182l0.59243,0.56661c0.90462,0.90953 0.85054,1.31145 1.24508,2.50613l0.92428,2.46066c0.40806,1.02138 0.96607,1.89281 1.57202,2.80112c0.58013,0.8702 0.71042,1.13815 0.88741,2.11528c0.15732,0.87512 0.37856,1.60643 0.61455,2.4582l0.30359,1.53392c-1.18608,0.78785 -0.56907,0.49041 -1.8375,0.92182c0.91937,2.32177 -0.47074,2.31316 -0.30727,3.99457c0.13274,1.3557 1.94812,3.25097 2.61183,4.45548l1.07546,1.38274l1.7994,2.48647c2.67329,3.99703 6.42573,7.38197 8.97488,11.38883c1.73303,2.72368 4.58577,4.27481 6.27947,7.17302l0.95993,0.91445l15.90577,15.29122c1.62733,1.75515 -0.11308,0.06883 1.87806,1.30899l1.38274,1.38274c2.60569,2.53932 6.1713,4.54029 8.60369,7.07346c0.45354,0.47197 0.6969,1.15044 1.2291,1.53023l1.07546,0.46091c2.07472,1.20697 3.82373,3.09733 5.99923,4.36945c0.91691,0.53466 1.63593,1.10742 2.45082,1.77851c1.20206,0.99065 2.31316,1.83504 3.70696,2.5344c0.79277,0.39823 1.16273,0.74483 1.82398,1.30407c0.87266,0.73746 1.15658,1.22787 2.30456,1.23156l0.59611,0.54695c2.50122,2.21852 5.90951,3.83233 8.77576,5.59609l3.07275,1.84365c1.74163,1.04105 4.02776,2.74212 5.99186,3.0752l0.76819,0.61209l3.37756,1.69001l2.43976,1.13323c1.30284,0.54326 2.42132,1.31882 3.7254,1.86208c0.98451,0.41052 1.55112,0.94518 2.44099,1.46017l1.22664,0.46091l5.52726,2.30456l1.82152,1.05825c1.00663,0.54695 1.99606,0.83579 3.0752,1.18608c1.11233,0.36013 0.20034,0.05777 1.55973,0.67478l4.30185,1.69247l1.03736,0.46337c0.95378,0.40929 1.64085,0.61578 2.64994,0.76573l0.61701,0.61209c0.75344,0.52728 1.57816,0.61455 2.45574,0.61701l0.61701,0.61209l1.15289,0.18436c1.74163,0.29498 2.7962,1.15167 4.68532,1.35815c1.37905,1.37045 5.10691,1.9555 7.06732,2.60815l0.92182,0.4646c1.21681,0.50762 2.67944,0.66248 3.95401,1.13937c0.97836,0.36504 1.89773,0.62438 2.91911,0.82718c1.15289,0.22861 0.59857,0.11922 1.86331,0.66248c1.17379,0.50393 1.69984,0.53466 2.94,0.4437c0.60963,0.60595 0.65019,0.87635 1.529,0.99065c1.6728,0.21632 2.74089,0.69813 4.30922,1.15412c1.18362,0.34415 2.17182,0.37119 3.34192,0.85545c1.90633,0.79154 3.84831,0.63176 5.87632,1.45157c1.57325,0.63667 3.85568,1.14552 5.52849,1.38274c2.18902,0.31219 4.38911,1.07423 6.45523,1.84119c1.45771,-0.23845 1.47,-0.55064 2.76547,0.31342c1.88912,0 2.76916,0.8407 4.30185,0.7645c2.88469,-0.14135 9.84508,1.59906 12.43848,2.80603l-0.1647,0.73623c-18.60241,-3.79177 -36.72793,-7.58846 -54.90998,-13.22264c-41.24486,-12.78017 -79.13429,-33.09594 -110.43083,-63.06751c-10.98814,-10.52231 -21.49202,-21.70711 -29.90151,-34.44057c-8.00635,-12.12014 -12.30205,-23.81747 -16.46869,-37.54282c-1.65683,10.94144 -2.94861,22.85386 -2.60446,33.90715c1.0558,33.91575 13.27795,66.49301 33.32332,93.74336c23.28036,31.64806 59.71084,56.66145 96.99309,68.54192c13.47092,4.29324 27.19135,6.73054 41.14162,8.85689c2.19394,0.33431 4.21458,0.43879 6.34707,1.10742c-15.87504,-0.0295 -31.45141,-0.92305 -47.13962,-3.46483c-9.64965,-1.56341 -19.24646,-4.31905 -28.67241,-6.86206c-29.73313,-8.02356 -57.89178,-19.0412 -84.77585,-34.08168c21.59895,40.86139 57.52428,73.05148 99.12435,92.61996l17.73344,7.49627c2.23573,0.84562 8.70694,2.43484 10.27526,3.90608l0.5408,1.40363c1.20206,0.00492 1.45157,0.28146 2.45574,0.91937c1.48229,0.94272 1.91248,0.32325 3.38002,0.61455l1.07546,0.30973l1.07546,0.15364c0.78171,0.58382 0.40314,0.43387 1.3557,0.62315c1.00663,0.19911 0.75221,0.07989 1.87069,0.45231c1.29055,0.43141 2.54178,0.56907 3.84093,0.91937c1.01769,0.27409 1.61012,0.49164 2.7077,0.56784l0.97959,0.04671l0.61455,0.61455l1.2291,0l1.07546,0.30973c0.7436,0.1266 1.56956,-0.04179 2.30456,0.30482c1.5376,0.7264 1.90756,0.32202 3.38002,0.61455c1.4995,0.29744 2.75933,0.51376 4.30185,0.61455c0.99926,0.99926 2.31071,0.61455 3.6873,0.61455l0.61455,0.61455c1.41223,-0.51253 2.84782,-0.17699 4.30185,0l0.61455,0.61455c3.07643,-0.04548 5.92548,0.53957 8.89622,0.48058l0.6293,-0.01721l0.31342,0.4646l-0.61824,1.07546l-5.84068,-0.14749c-2.29964,2.27752 -8.31239,0.14626 -11.36916,0.91568c-2.01081,0.50639 -0.1942,0.53466 -1.92968,0.40683c-2.42747,-0.17945 -5.99186,-0.34292 -8.38368,0.04793l-0.74852,0.15978c-1.93829,-0.83087 -6.06191,-1.0558 -8.20055,-0.84685c-0.98697,0.0971 -1.8756,0.01598 -2.86134,-0.06883l-0.61455,-0.61455l-1.53637,0.15118c-1.46631,0.17453 -2.53563,0.05531 -3.99457,-0.15118l-0.61455,-0.61455c-7.45817,0.16962 -16.03113,-4.12854 -22.92515,-6.76865c-18.7585,-7.18408 -37.20359,-14.81187 -54.12336,-25.8418c-7.10911,-4.63493 -13.43774,-10.2347 -20.41041,-14.95199c-3.09733,-2.09438 -5.03316,-5.40189 -8.60492,-6.733z" transform="translate(-0.975376 0) scale(0.5 0.5)" fill="#5470F4"/>
  </g>
 </g>
</svg>